<svg width="436" height="91" viewBox="0 0 436 91" fill="none" xmlns="http://www.w3.org/2000/svg">
<g filter="url(#filter0_f_221_164)">
<rect x="18" y="14" width="400" height="55.2466" rx="4" fill="white" fill-opacity="0.37"/>
</g>
<g filter="url(#filter1_d_221_164)">
<rect x="18" y="14" width="400" height="55.2466" rx="4" fill="url(#paint0_linear_221_164)"/>
</g>
<g filter="url(#filter2_d_221_164)">
<path d="M78.2792 50.384C76.9192 50.384 75.6632 50.176 74.5112 49.76C73.3752 49.328 72.3832 48.72 71.5352 47.936C70.7032 47.152 70.0552 46.224 69.5912 45.152C69.1272 44.08 68.8952 42.896 68.8952 41.6C68.8952 40.304 69.1272 39.12 69.5912 38.048C70.0552 36.976 70.7112 36.048 71.5592 35.264C72.4072 34.48 73.4072 33.88 74.5592 33.464C75.7272 33.032 77.0072 32.816 78.3992 32.816C80.0632 32.816 81.5432 33.096 82.8392 33.656C84.1512 34.216 85.2312 35.016 86.0792 36.056L82.4552 39.248C81.9272 38.64 81.3512 38.184 80.7272 37.88C80.1192 37.56 79.4392 37.4 78.6872 37.4C78.0632 37.4 77.4952 37.496 76.9832 37.688C76.4872 37.88 76.0632 38.16 75.7112 38.528C75.3592 38.896 75.0872 39.336 74.8952 39.848C74.7032 40.36 74.6072 40.944 74.6072 41.6C74.6072 42.224 74.7032 42.8 74.8952 43.328C75.0872 43.84 75.3592 44.28 75.7112 44.648C76.0632 45.016 76.4792 45.304 76.9592 45.512C77.4552 45.704 78.0072 45.8 78.6152 45.8C79.2552 45.8 79.8792 45.696 80.4872 45.488C81.0952 45.264 81.7432 44.888 82.4312 44.36L85.5992 48.248C84.5752 48.936 83.4072 49.464 82.0952 49.832C80.7832 50.2 79.5112 50.384 78.2792 50.384ZM80.6792 47.528V41.144H85.5992V48.248L80.6792 47.528ZM86.1885 50L93.5325 33.2H99.1005L106.445 50H100.589L95.1645 35.888H97.3725L91.9485 50H86.1885ZM90.5565 47.072L91.9965 42.992H99.7245L101.165 47.072H90.5565ZM107.348 50V33.2H115.436C117.004 33.2 118.356 33.456 119.492 33.968C120.644 34.48 121.532 35.216 122.156 36.176C122.78 37.12 123.092 38.24 123.092 39.536C123.092 40.832 122.78 41.952 122.156 42.896C121.532 43.824 120.644 44.536 119.492 45.032C118.356 45.528 117.004 45.776 115.436 45.776H110.492L113.012 43.448V50H107.348ZM117.404 50L113.276 43.88H119.276L123.452 50H117.404ZM113.012 44.072L110.492 41.504H115.076C115.86 41.504 116.436 41.328 116.804 40.976C117.188 40.624 117.38 40.144 117.38 39.536C117.38 38.928 117.188 38.448 116.804 38.096C116.436 37.744 115.86 37.568 115.076 37.568H110.492L113.012 35V44.072ZM123.407 50L130.751 33.2H136.319L143.663 50H137.807L132.383 35.888H134.591L129.167 50H123.407ZM127.775 47.072L129.215 42.992H136.943L138.383 47.072H127.775ZM144.567 50V33.2H149.223L157.767 43.424H155.607V33.2H161.127V50H156.471L147.927 39.776H150.087V50H144.567ZM167.504 50V37.592H162.584V33.2H178.088V37.592H173.168V50H167.504ZM179.559 50V33.2H185.223V50H179.559ZM187.95 50V33.2H196.038C197.606 33.2 198.958 33.456 200.094 33.968C201.246 34.48 202.134 35.216 202.758 36.176C203.382 37.12 203.694 38.24 203.694 39.536C203.694 40.832 203.382 41.952 202.758 42.896C202.134 43.824 201.246 44.536 200.094 45.032C198.958 45.528 197.606 45.776 196.038 45.776H191.094L193.614 43.448V50H187.95ZM198.006 50L193.878 43.88H199.878L204.054 50H198.006ZM193.614 44.072L191.094 41.504H195.678C196.462 41.504 197.038 41.328 197.406 40.976C197.79 40.624 197.982 40.144 197.982 39.536C197.982 38.928 197.79 38.448 197.406 38.096C197.038 37.744 196.462 37.568 195.678 37.568H191.094L193.614 35V44.072ZM213.028 50V33.2H221.116C222.684 33.2 224.036 33.456 225.172 33.968C226.324 34.48 227.212 35.216 227.836 36.176C228.46 37.12 228.772 38.24 228.772 39.536C228.772 40.832 228.46 41.952 227.836 42.896C227.212 43.84 226.324 44.576 225.172 45.104C224.036 45.616 222.684 45.872 221.116 45.872H216.172L218.692 43.448V50H213.028ZM218.692 44.072L216.172 41.504H220.756C221.54 41.504 222.116 41.328 222.484 40.976C222.868 40.624 223.06 40.144 223.06 39.536C223.06 38.928 222.868 38.448 222.484 38.096C222.116 37.744 221.54 37.568 220.756 37.568H216.172L218.692 35V44.072ZM230.63 50V33.2H238.718C240.286 33.2 241.638 33.456 242.774 33.968C243.926 34.48 244.814 35.216 245.438 36.176C246.062 37.12 246.374 38.24 246.374 39.536C246.374 40.832 246.062 41.952 245.438 42.896C244.814 43.824 243.926 44.536 242.774 45.032C241.638 45.528 240.286 45.776 238.718 45.776H233.774L236.294 43.448V50H230.63ZM240.686 50L236.558 43.88H242.558L246.734 50H240.686ZM236.294 44.072L233.774 41.504H238.358C239.142 41.504 239.718 41.328 240.086 40.976C240.47 40.624 240.662 40.144 240.662 39.536C240.662 38.928 240.47 38.448 240.086 38.096C239.718 37.744 239.142 37.568 238.358 37.568H233.774L236.294 35V44.072ZM257.321 50.384C255.961 50.384 254.697 50.168 253.529 49.736C252.377 49.304 251.377 48.696 250.529 47.912C249.681 47.112 249.017 46.176 248.537 45.104C248.073 44.032 247.841 42.864 247.841 41.6C247.841 40.32 248.073 39.152 248.537 38.096C249.017 37.024 249.681 36.096 250.529 35.312C251.377 34.512 252.377 33.896 253.529 33.464C254.697 33.032 255.961 32.816 257.321 32.816C258.697 32.816 259.961 33.032 261.113 33.464C262.265 33.896 263.265 34.512 264.113 35.312C264.961 36.096 265.617 37.024 266.081 38.096C266.561 39.152 266.801 40.32 266.801 41.6C266.801 42.864 266.561 44.032 266.081 45.104C265.617 46.176 264.961 47.112 264.113 47.912C263.265 48.696 262.265 49.304 261.113 49.736C259.961 50.168 258.697 50.384 257.321 50.384ZM257.321 45.8C257.849 45.8 258.337 45.704 258.785 45.512C259.249 45.32 259.649 45.048 259.985 44.696C260.337 44.328 260.609 43.888 260.801 43.376C260.993 42.848 261.089 42.256 261.089 41.6C261.089 40.944 260.993 40.36 260.801 39.848C260.609 39.32 260.337 38.88 259.985 38.528C259.649 38.16 259.249 37.88 258.785 37.688C258.337 37.496 257.849 37.4 257.321 37.4C256.793 37.4 256.297 37.496 255.833 37.688C255.385 37.88 254.985 38.16 254.633 38.528C254.297 38.88 254.033 39.32 253.841 39.848C253.649 40.36 253.553 40.944 253.553 41.6C253.553 42.256 253.649 42.848 253.841 43.376C254.033 43.888 254.297 44.328 254.633 44.696C254.985 45.048 255.385 45.32 255.833 45.512C256.297 45.704 256.793 45.8 257.321 45.8ZM268.856 50V33.2H273.512L280.232 44.168H277.784L284.312 33.2H288.968L289.016 50H283.856L283.808 40.976H284.624L280.16 48.488H277.664L273.008 40.976H274.016V50H268.856ZM300.563 50.384C299.203 50.384 297.939 50.168 296.771 49.736C295.619 49.304 294.619 48.696 293.771 47.912C292.923 47.112 292.259 46.176 291.779 45.104C291.315 44.032 291.083 42.864 291.083 41.6C291.083 40.32 291.315 39.152 291.779 38.096C292.259 37.024 292.923 36.096 293.771 35.312C294.619 34.512 295.619 33.896 296.771 33.464C297.939 33.032 299.203 32.816 300.563 32.816C301.939 32.816 303.203 33.032 304.355 33.464C305.507 33.896 306.507 34.512 307.355 35.312C308.203 36.096 308.859 37.024 309.323 38.096C309.803 39.152 310.043 40.32 310.043 41.6C310.043 42.864 309.803 44.032 309.323 45.104C308.859 46.176 308.203 47.112 307.355 47.912C306.507 48.696 305.507 49.304 304.355 49.736C303.203 50.168 301.939 50.384 300.563 50.384ZM300.563 45.8C301.091 45.8 301.579 45.704 302.027 45.512C302.491 45.32 302.891 45.048 303.227 44.696C303.579 44.328 303.851 43.888 304.043 43.376C304.235 42.848 304.331 42.256 304.331 41.6C304.331 40.944 304.235 40.36 304.043 39.848C303.851 39.32 303.579 38.88 303.227 38.528C302.891 38.16 302.491 37.88 302.027 37.688C301.579 37.496 301.091 37.4 300.563 37.4C300.035 37.4 299.539 37.496 299.075 37.688C298.627 37.88 298.227 38.16 297.875 38.528C297.539 38.88 297.275 39.32 297.083 39.848C296.891 40.36 296.795 40.944 296.795 41.6C296.795 42.256 296.891 42.848 297.083 43.376C297.275 43.888 297.539 44.328 297.875 44.696C298.227 45.048 298.627 45.32 299.075 45.512C299.539 45.704 300.035 45.8 300.563 45.8ZM320.786 50.384C319.442 50.384 318.194 50.176 317.042 49.76C315.906 49.328 314.914 48.72 314.066 47.936C313.234 47.152 312.586 46.224 312.122 45.152C311.658 44.08 311.426 42.896 311.426 41.6C311.426 40.304 311.658 39.12 312.122 38.048C312.586 36.976 313.234 36.048 314.066 35.264C314.914 34.48 315.906 33.88 317.042 33.464C318.194 33.032 319.442 32.816 320.786 32.816C322.434 32.816 323.89 33.104 325.154 33.68C326.434 34.256 327.49 35.088 328.322 36.176L324.746 39.368C324.25 38.744 323.698 38.264 323.09 37.928C322.498 37.576 321.826 37.4 321.074 37.4C320.482 37.4 319.946 37.496 319.466 37.688C318.986 37.88 318.57 38.16 318.218 38.528C317.882 38.896 317.618 39.344 317.426 39.872C317.234 40.384 317.138 40.96 317.138 41.6C317.138 42.24 317.234 42.824 317.426 43.352C317.618 43.864 317.882 44.304 318.218 44.672C318.57 45.04 318.986 45.32 319.466 45.512C319.946 45.704 320.482 45.8 321.074 45.8C321.826 45.8 322.498 45.632 323.09 45.296C323.698 44.944 324.25 44.456 324.746 43.832L328.322 47.024C327.49 48.096 326.434 48.928 325.154 49.52C323.89 50.096 322.434 50.384 320.786 50.384ZM319.154 55.76C318.754 55.76 318.33 55.712 317.882 55.616C317.434 55.52 317.074 55.4 316.802 55.256L317.474 53.264C317.65 53.328 317.858 53.392 318.098 53.456C318.354 53.52 318.626 53.552 318.914 53.552C319.33 53.552 319.626 53.496 319.802 53.384C319.978 53.272 320.066 53.136 320.066 52.976C320.066 52.832 319.986 52.712 319.826 52.616C319.682 52.536 319.434 52.496 319.082 52.496H318.098L318.746 49.76H321.53L321.194 51.248C321.946 51.344 322.474 51.584 322.778 51.968C323.082 52.352 323.234 52.752 323.234 53.168C323.234 53.968 322.858 54.6 322.106 55.064C321.37 55.528 320.386 55.76 319.154 55.76ZM327.899 50L335.243 33.2H340.811L348.155 50H342.299L336.875 35.888H339.083L333.659 50H327.899ZM332.267 47.072L333.707 42.992H341.435L342.875 47.072H332.267ZM339.971 32.072C339.523 32.072 339.123 32 338.771 31.856C338.435 31.712 338.123 31.552 337.835 31.376C337.563 31.184 337.315 31.016 337.091 30.872C336.867 30.728 336.643 30.656 336.419 30.656C336.115 30.656 335.867 30.76 335.675 30.968C335.483 31.176 335.371 31.464 335.339 31.832H332.771C332.803 30.568 333.107 29.56 333.683 28.808C334.259 28.056 335.059 27.68 336.083 27.68C336.531 27.68 336.923 27.752 337.259 27.896C337.611 28.04 337.923 28.208 338.195 28.4C338.483 28.576 338.739 28.736 338.963 28.88C339.203 29.024 339.427 29.096 339.635 29.096C339.955 29.096 340.211 29 340.403 28.808C340.595 28.6 340.699 28.328 340.715 27.992H343.283C343.267 29.208 342.963 30.192 342.371 30.944C341.795 31.696 340.995 32.072 339.971 32.072ZM357.633 50.384C356.273 50.384 355.009 50.168 353.841 49.736C352.689 49.304 351.689 48.696 350.841 47.912C349.993 47.112 349.329 46.176 348.849 45.104C348.385 44.032 348.153 42.864 348.153 41.6C348.153 40.32 348.385 39.152 348.849 38.096C349.329 37.024 349.993 36.096 350.841 35.312C351.689 34.512 352.689 33.896 353.841 33.464C355.009 33.032 356.273 32.816 357.633 32.816C359.009 32.816 360.273 33.032 361.425 33.464C362.577 33.896 363.577 34.512 364.425 35.312C365.273 36.096 365.929 37.024 366.393 38.096C366.873 39.152 367.113 40.32 367.113 41.6C367.113 42.864 366.873 44.032 366.393 45.104C365.929 46.176 365.273 47.112 364.425 47.912C363.577 48.696 362.577 49.304 361.425 49.736C360.273 50.168 359.009 50.384 357.633 50.384ZM357.633 45.8C358.161 45.8 358.649 45.704 359.097 45.512C359.561 45.32 359.961 45.048 360.297 44.696C360.649 44.328 360.921 43.888 361.113 43.376C361.305 42.848 361.401 42.256 361.401 41.6C361.401 40.944 361.305 40.36 361.113 39.848C360.921 39.32 360.649 38.88 360.297 38.528C359.961 38.16 359.561 37.88 359.097 37.688C358.649 37.496 358.161 37.4 357.633 37.4C357.105 37.4 356.609 37.496 356.145 37.688C355.697 37.88 355.297 38.16 354.945 38.528C354.609 38.88 354.345 39.32 354.153 39.848C353.961 40.36 353.865 40.944 353.865 41.6C353.865 42.256 353.961 42.848 354.153 43.376C354.345 43.888 354.609 44.328 354.945 44.696C355.297 45.048 355.697 45.32 356.145 45.512C356.609 45.704 357.105 45.8 357.633 45.8Z" fill="url(#paint1_linear_221_164)"/>
</g>
<defs>
<filter id="filter0_f_221_164" x="7.8" y="3.8" width="420.4" height="75.6466" filterUnits="userSpaceOnUse" color-interpolation-filters="sRGB">
<feFlood flood-opacity="0" result="BackgroundImageFix"/>
<feBlend mode="normal" in="SourceGraphic" in2="BackgroundImageFix" result="shape"/>
<feGaussianBlur stdDeviation="5.1" result="effect1_foregroundBlur_221_164"/>
</filter>
<filter id="filter1_d_221_164" x="0.8" y="0.8" width="434.4" height="89.6466" filterUnits="userSpaceOnUse" color-interpolation-filters="sRGB">
<feFlood flood-opacity="0" result="BackgroundImageFix"/>
<feColorMatrix in="SourceAlpha" type="matrix" values="0 0 0 0 0 0 0 0 0 0 0 0 0 0 0 0 0 0 127 0" result="hardAlpha"/>
<feMorphology radius="7" operator="dilate" in="SourceAlpha" result="effect1_dropShadow_221_164"/>
<feOffset dy="4"/>
<feGaussianBlur stdDeviation="5.1"/>
<feComposite in2="hardAlpha" operator="out"/>
<feColorMatrix type="matrix" values="0 0 0 0 0 0 0 0 0 0 0 0 0 0 0 0 0 0 0.25 0"/>
<feBlend mode="normal" in2="BackgroundImageFix" result="effect1_dropShadow_221_164"/>
<feBlend mode="normal" in="SourceGraphic" in2="effect1_dropShadow_221_164" result="shape"/>
</filter>
<filter id="filter2_d_221_164" x="68.8945" y="27.68" width="298.219" height="30.08" filterUnits="userSpaceOnUse" color-interpolation-filters="sRGB">
<feFlood flood-opacity="0" result="BackgroundImageFix"/>
<feColorMatrix in="SourceAlpha" type="matrix" values="0 0 0 0 0 0 0 0 0 0 0 0 0 0 0 0 0 0 127 0" result="hardAlpha"/>
<feOffset dy="2"/>
<feComposite in2="hardAlpha" operator="out"/>
<feColorMatrix type="matrix" values="0 0 0 0 0 0 0 0 0 0 0 0 0 0 0 0 0 0 0.25 0"/>
<feBlend mode="normal" in2="BackgroundImageFix" result="effect1_dropShadow_221_164"/>
<feBlend mode="normal" in="SourceGraphic" in2="effect1_dropShadow_221_164" result="shape"/>
</filter>
<linearGradient id="paint0_linear_221_164" x1="218" y1="14.2466" x2="218" y2="69.2466" gradientUnits="userSpaceOnUse">
<stop stop-color="#F0E802"/>
<stop offset="0.533554" stop-color="#BCB602"/>
<stop offset="0.533654" stop-color="#A9A400"/>
</linearGradient>
<linearGradient id="paint1_linear_221_164" x1="222.651" y1="14.2466" x2="222.651" y2="69.2466" gradientUnits="userSpaceOnUse">
<stop/>
<stop offset="0.53" stop-color="#161616"/>
<stop offset="0.53"/>
</linearGradient>
</defs>
</svg>
